<?xml version="1.0" encoding="UTF-8" standalone="no"?>
<!DOCTYPE svg PUBLIC "-//W3C//DTD SVG 1.1//EN"
 "http://www.w3.org/Graphics/SVG/1.1/DTD/svg11.dtd">
<!-- Generated by graphviz version 16.0.0 (20260814.1018)
 -->
<!-- Title: PetriNet Pages: 1 -->
<svg width="457pt" height="4039pt"
 viewBox="0.00 0.00 457.00 4039.00" xmlns="http://www.w3.org/2000/svg" xmlns:xlink="http://www.w3.org/1999/xlink">
<g id="graph0" class="graph" transform="scale(1 1) rotate(0) translate(4 4035.39)">
<title>PetriNet</title>
<polygon fill="white" stroke="none" points="-4,4 -4,-4035.39 453.25,-4035.39 453.25,4 -4,4"/>
<!-- p0 -->
<g id="node1" class="node">
<title>p0</title>
<ellipse fill="none" stroke="black" cx="224.62" cy="-3959.75" rx="71.65" ry="71.65"/>
<text xml:space="preserve" text-anchor="middle" x="224.62" y="-3955.55" font-family="Times,serif" font-size="14.00">start (tokens: 1)</text>
</g>
<!-- t1 -->
<g id="node27" class="node">
<title>t1</title>
<polygon fill="black" stroke="black" points="403.16,-3852.1 46.09,-3852.1 46.09,-3816.1 403.16,-3816.1 403.16,-3852.1"/>
<text xml:space="preserve" text-anchor="middle" x="224.62" y="-3829.9" font-family="Times,serif" font-size="14.00" fill="white">const canvasCpu = call: document.getElementById() (line 1)</text>
</g>
<!-- p0&#45;&gt;t1 -->
<g id="edge1" class="edge">
<title>p0&#45;&gt;t1</title>
<path fill="none" stroke="black" d="M224.62,-3887.9C224.62,-3879.46 224.62,-3871.26 224.62,-3863.93"/>
<polygon fill="black" stroke="black" points="228.12,-3864.04 224.62,-3854.04 221.12,-3864.04 228.12,-3864.04"/>
</g>
<!-- p_end -->
<g id="node2" class="node">
<title>p_end</title>
<ellipse fill="none" stroke="black" cx="224.62" cy="-24.98" rx="24.98" ry="24.98"/>
<text xml:space="preserve" text-anchor="middle" x="224.62" y="-20.78" font-family="Times,serif" font-size="14.00">end</text>
</g>
<!-- p1 -->
<g id="node3" class="node">
<title>p1</title>
<ellipse fill="none" stroke="black" cx="224.62" cy="-3759.41" rx="20.69" ry="20.69"/>
<text xml:space="preserve" text-anchor="middle" x="224.62" y="-3755.21" font-family="Times,serif" font-size="14.00">p1</text>
</g>
<!-- t2 -->
<g id="node28" class="node">
<title>t2</title>
<polygon fill="black" stroke="black" points="403.55,-3702.71 45.7,-3702.71 45.7,-3666.71 403.55,-3666.71 403.55,-3702.71"/>
<text xml:space="preserve" text-anchor="middle" x="224.62" y="-3680.51" font-family="Times,serif" font-size="14.00" fill="white">const canvasGpu = call: document.getElementById() (line 2)</text>
</g>
<!-- p1&#45;&gt;t2 -->
<g id="edge3" class="edge">
<title>p1&#45;&gt;t2</title>
<path fill="none" stroke="black" d="M224.62,-3738.54C224.62,-3731.09 224.62,-3722.46 224.62,-3714.36"/>
<polygon fill="black" stroke="black" points="228.12,-3714.59 224.62,-3704.59 221.12,-3714.59 228.12,-3714.59"/>
</g>
<!-- p2 -->
<g id="node4" class="node">
<title>p2</title>
<ellipse fill="none" stroke="black" cx="224.62" cy="-3610.02" rx="20.69" ry="20.69"/>
<text xml:space="preserve" text-anchor="middle" x="224.62" y="-3605.82" font-family="Times,serif" font-size="14.00">p2</text>
</g>
<!-- t3 -->
<g id="node29" class="node">
<title>t3</title>
<polygon fill="black" stroke="black" points="368.95,-3553.33 80.3,-3553.33 80.3,-3517.33 368.95,-3517.33 368.95,-3553.33"/>
<text xml:space="preserve" text-anchor="middle" x="224.62" y="-3531.13" font-family="Times,serif" font-size="14.00" fill="white">const ctx = call: canvasCpu.getContext() (line 3)</text>
</g>
<!-- p2&#45;&gt;t3 -->
<g id="edge5" class="edge">
<title>p2&#45;&gt;t3</title>
<path fill="none" stroke="black" d="M224.62,-3589.16C224.62,-3581.7 224.62,-3573.07 224.62,-3564.97"/>
<polygon fill="black" stroke="black" points="228.12,-3565.2 224.62,-3555.2 221.12,-3565.2 228.12,-3565.2"/>
</g>
<!-- p3 -->
<g id="node5" class="node">
<title>p3</title>
<ellipse fill="none" stroke="black" cx="224.62" cy="-3460.63" rx="20.69" ry="20.69"/>
<text xml:space="preserve" text-anchor="middle" x="224.62" y="-3456.43" font-family="Times,serif" font-size="14.00">p3</text>
</g>
<!-- t4 -->
<g id="node30" class="node">
<title>t4</title>
<polygon fill="black" stroke="black" points="394.61,-3403.94 54.64,-3403.94 54.64,-3367.94 394.61,-3367.94 394.61,-3403.94"/>
<text xml:space="preserve" text-anchor="middle" x="224.62" y="-3381.74" font-family="Times,serif" font-size="14.00" fill="white">const btnStart = call: document.getElementById() (line 5)</text>
</g>
<!-- p3&#45;&gt;t4 -->
<g id="edge7" class="edge">
<title>p3&#45;&gt;t4</title>
<path fill="none" stroke="black" d="M224.62,-3439.77C224.62,-3432.31 224.62,-3423.68 224.62,-3415.58"/>
<polygon fill="black" stroke="black" points="228.12,-3415.82 224.62,-3405.82 221.12,-3415.82 228.12,-3415.82"/>
</g>
<!-- p4 -->
<g id="node6" class="node">
<title>p4</title>
<ellipse fill="none" stroke="black" cx="224.62" cy="-3311.25" rx="20.69" ry="20.69"/>
<text xml:space="preserve" text-anchor="middle" x="224.62" y="-3307.05" font-family="Times,serif" font-size="14.00">p4</text>
</g>
<!-- t5 -->
<g id="node31" class="node">
<title>t5</title>
<polygon fill="black" stroke="black" points="393.84,-3254.55 55.41,-3254.55 55.41,-3218.55 393.84,-3218.55 393.84,-3254.55"/>
<text xml:space="preserve" text-anchor="middle" x="224.62" y="-3232.35" font-family="Times,serif" font-size="14.00" fill="white">const btnStep = call: document.getElementById() (line 6)</text>
</g>
<!-- p4&#45;&gt;t5 -->
<g id="edge9" class="edge">
<title>p4&#45;&gt;t5</title>
<path fill="none" stroke="black" d="M224.62,-3290.38C224.62,-3282.92 224.62,-3274.29 224.62,-3266.2"/>
<polygon fill="black" stroke="black" points="228.12,-3266.43 224.62,-3256.43 221.12,-3266.43 228.12,-3266.43"/>
</g>
<!-- p5 -->
<g id="node7" class="node">
<title>p5</title>
<ellipse fill="none" stroke="black" cx="224.62" cy="-3161.86" rx="20.69" ry="20.69"/>
<text xml:space="preserve" text-anchor="middle" x="224.62" y="-3157.66" font-family="Times,serif" font-size="14.00">p5</text>
</g>
<!-- t6 -->
<g id="node32" class="node">
<title>t6</title>
<polygon fill="black" stroke="black" points="405.11,-3105.16 44.14,-3105.16 44.14,-3069.16 405.11,-3069.16 405.11,-3105.16"/>
<text xml:space="preserve" text-anchor="middle" x="224.62" y="-3082.96" font-family="Times,serif" font-size="14.00" fill="white">const btnRandom = call: document.getElementById() (line 7)</text>
</g>
<!-- p5&#45;&gt;t6 -->
<g id="edge11" class="edge">
<title>p5&#45;&gt;t6</title>
<path fill="none" stroke="black" d="M224.62,-3140.99C224.62,-3133.54 224.62,-3124.91 224.62,-3116.81"/>
<polygon fill="black" stroke="black" points="228.12,-3117.04 224.62,-3107.04 221.12,-3117.04 228.12,-3117.04"/>
</g>
<!-- p6 -->
<g id="node8" class="node">
<title>p6</title>
<ellipse fill="none" stroke="black" cx="224.62" cy="-3012.47" rx="20.69" ry="20.69"/>
<text xml:space="preserve" text-anchor="middle" x="224.62" y="-3008.27" font-family="Times,serif" font-size="14.00">p6</text>
</g>
<!-- t7 -->
<g id="node33" class="node">
<title>t7</title>
<polygon fill="black" stroke="black" points="405.1,-2955.78 44.14,-2955.78 44.14,-2919.78 405.1,-2919.78 405.1,-2955.78"/>
<text xml:space="preserve" text-anchor="middle" x="224.62" y="-2933.58" font-family="Times,serif" font-size="14.00" fill="white">const speedSlider = call: document.getElementById() (line 8)</text>
</g>
<!-- p6&#45;&gt;t7 -->
<g id="edge13" class="edge">
<title>p6&#45;&gt;t7</title>
<path fill="none" stroke="black" d="M224.62,-2991.61C224.62,-2984.15 224.62,-2975.52 224.62,-2967.42"/>
<polygon fill="black" stroke="black" points="228.12,-2967.66 224.62,-2957.66 221.12,-2967.66 228.12,-2967.66"/>
</g>
<!-- p7 -->
<g id="node9" class="node">
<title>p7</title>
<ellipse fill="none" stroke="black" cx="224.62" cy="-2863.08" rx="20.69" ry="20.69"/>
<text xml:space="preserve" text-anchor="middle" x="224.62" y="-2858.88" font-family="Times,serif" font-size="14.00">p7</text>
</g>
<!-- t8 -->
<g id="node34" class="node">
<title>t8</title>
<polygon fill="black" stroke="black" points="421.05,-2806.39 28.2,-2806.39 28.2,-2770.39 421.05,-2770.39 421.05,-2806.39"/>
<text xml:space="preserve" text-anchor="middle" x="224.62" y="-2784.19" font-family="Times,serif" font-size="14.00" fill="white">const modeRadios = call: document.getElementsByName() (line 9)</text>
</g>
<!-- p7&#45;&gt;t8 -->
<g id="edge15" class="edge">
<title>p7&#45;&gt;t8</title>
<path fill="none" stroke="black" d="M224.62,-2842.22C224.62,-2834.76 224.62,-2826.13 224.62,-2818.04"/>
<polygon fill="black" stroke="black" points="228.12,-2818.27 224.62,-2808.27 221.12,-2818.27 228.12,-2818.27"/>
</g>
<!-- p8 -->
<g id="node10" class="node">
<title>p8</title>
<ellipse fill="none" stroke="black" cx="224.62" cy="-2713.7" rx="20.69" ry="20.69"/>
<text xml:space="preserve" text-anchor="middle" x="224.62" y="-2709.5" font-family="Times,serif" font-size="14.00">p8</text>
</g>
<!-- t9 -->
<g id="node35" class="node">
<title>t9</title>
<polygon fill="black" stroke="black" points="321.53,-2657 127.72,-2657 127.72,-2621 321.53,-2621 321.53,-2657"/>
<text xml:space="preserve" text-anchor="middle" x="224.62" y="-2634.8" font-family="Times,serif" font-size="14.00" fill="white">const CELL_SIZE = 4 (line 12)</text>
</g>
<!-- p8&#45;&gt;t9 -->
<g id="edge17" class="edge">
<title>p8&#45;&gt;t9</title>
<path fill="none" stroke="black" d="M224.62,-2692.83C224.62,-2685.38 224.62,-2676.75 224.62,-2668.65"/>
<polygon fill="black" stroke="black" points="228.12,-2668.88 224.62,-2658.88 221.12,-2668.88 228.12,-2668.88"/>
</g>
<!-- p9 -->
<g id="node11" class="node">
<title>p9</title>
<ellipse fill="none" stroke="black" cx="224.62" cy="-2564.31" rx="20.69" ry="20.69"/>
<text xml:space="preserve" text-anchor="middle" x="224.62" y="-2560.11" font-family="Times,serif" font-size="14.00">p9</text>
</g>
<!-- t10 -->
<g id="node36" class="node">
<title>t10</title>
<polygon fill="black" stroke="black" points="312.98,-2507.62 136.27,-2507.62 136.27,-2471.62 312.98,-2471.62 312.98,-2507.62"/>
<text xml:space="preserve" text-anchor="middle" x="224.62" y="-2485.42" font-family="Times,serif" font-size="14.00" fill="white">const ROWS = 150 (line 13)</text>
</g>
<!-- p9&#45;&gt;t10 -->
<g id="edge19" class="edge">
<title>p9&#45;&gt;t10</title>
<path fill="none" stroke="black" d="M224.62,-2543.45C224.62,-2535.99 224.62,-2527.36 224.62,-2519.26"/>
<polygon fill="black" stroke="black" points="228.12,-2519.5 224.62,-2509.5 221.12,-2519.5 228.12,-2519.5"/>
</g>
<!-- p10 -->
<g id="node12" class="node">
<title>p10</title>
<ellipse fill="none" stroke="black" cx="224.62" cy="-2410.1" rx="25.52" ry="25.52"/>
<text xml:space="preserve" text-anchor="middle" x="224.62" y="-2405.9" font-family="Times,serif" font-size="14.00">p10</text>
</g>
<!-- t11 -->
<g id="node37" class="node">
<title>t11</title>
<polygon fill="black" stroke="black" points="310.65,-2348.57 138.6,-2348.57 138.6,-2312.57 310.65,-2312.57 310.65,-2348.57"/>
<text xml:space="preserve" text-anchor="middle" x="224.62" y="-2326.37" font-family="Times,serif" font-size="14.00" fill="white">const COLS = 200 (line 14)</text>
</g>
<!-- p10&#45;&gt;t11 -->
<g id="edge21" class="edge">
<title>p10&#45;&gt;t11</title>
<path fill="none" stroke="black" d="M224.62,-2384.14C224.62,-2376.5 224.62,-2368.03 224.62,-2360.17"/>
<polygon fill="black" stroke="black" points="228.12,-2360.39 224.62,-2350.39 221.12,-2360.39 228.12,-2360.39"/>
</g>
<!-- p11 -->
<g id="node13" class="node">
<title>p11</title>
<ellipse fill="none" stroke="black" cx="224.62" cy="-2251.05" rx="25.52" ry="25.52"/>
<text xml:space="preserve" text-anchor="middle" x="224.62" y="-2246.85" font-family="Times,serif" font-size="14.00">p11</text>
</g>
<!-- t12 -->
<g id="node38" class="node">
<title>t12</title>
<polygon fill="black" stroke="black" points="374.8,-2189.53 74.44,-2189.53 74.44,-2153.53 374.8,-2153.53 374.8,-2189.53"/>
<text xml:space="preserve" text-anchor="middle" x="224.62" y="-2167.33" font-family="Times,serif" font-size="14.00" fill="white">canvasCpu.width = COLS * CELL_SIZE (line 16)</text>
</g>
<!-- p11&#45;&gt;t12 -->
<g id="edge23" class="edge">
<title>p11&#45;&gt;t12</title>
<path fill="none" stroke="black" d="M224.62,-2225.1C224.62,-2217.45 224.62,-2208.99 224.62,-2201.12"/>
<polygon fill="black" stroke="black" points="228.12,-2201.35 224.62,-2191.35 221.12,-2201.35 228.12,-2201.35"/>
</g>
<!-- p12 -->
<g id="node14" class="node">
<title>p12</title>
<ellipse fill="none" stroke="black" cx="224.62" cy="-2092.01" rx="25.52" ry="25.52"/>
<text xml:space="preserve" text-anchor="middle" x="224.62" y="-2087.81" font-family="Times,serif" font-size="14.00">p12</text>
</g>
<!-- t13 -->
<g id="node39" class="node">
<title>t13</title>
<polygon fill="black" stroke="black" points="378.69,-2030.49 70.56,-2030.49 70.56,-1994.49 378.69,-1994.49 378.69,-2030.49"/>
<text xml:space="preserve" text-anchor="middle" x="224.62" y="-2008.29" font-family="Times,serif" font-size="14.00" fill="white">canvasCpu.height = ROWS * CELL_SIZE (line 17)</text>
</g>
<!-- p12&#45;&gt;t13 -->
<g id="edge25" class="edge">
<title>p12&#45;&gt;t13</title>
<path fill="none" stroke="black" d="M224.62,-2066.05C224.62,-2058.41 224.62,-2049.94 224.62,-2042.08"/>
<polygon fill="black" stroke="black" points="228.12,-2042.3 224.62,-2032.3 221.12,-2042.3 228.12,-2042.3"/>
</g>
<!-- p13 -->
<g id="node15" class="node">
<title>p13</title>
<ellipse fill="none" stroke="black" cx="224.62" cy="-1932.96" rx="25.52" ry="25.52"/>
<text xml:space="preserve" text-anchor="middle" x="224.62" y="-1928.76" font-family="Times,serif" font-size="14.00">p13</text>
</g>
<!-- t14 -->
<g id="node40" class="node">
<title>t14</title>
<polygon fill="black" stroke="black" points="375.19,-1871.44 74.06,-1871.44 74.06,-1835.44 375.19,-1835.44 375.19,-1871.44"/>
<text xml:space="preserve" text-anchor="middle" x="224.62" y="-1849.24" font-family="Times,serif" font-size="14.00" fill="white">canvasGpu.width = COLS * CELL_SIZE (line 18)</text>
</g>
<!-- p13&#45;&gt;t14 -->
<g id="edge27" class="edge">
<title>p13&#45;&gt;t14</title>
<path fill="none" stroke="black" d="M224.62,-1907.01C224.62,-1899.37 224.62,-1890.9 224.62,-1883.04"/>
<polygon fill="black" stroke="black" points="228.12,-1883.26 224.62,-1873.26 221.12,-1883.26 228.12,-1883.26"/>
</g>
<!-- p14 -->
<g id="node16" class="node">
<title>p14</title>
<ellipse fill="none" stroke="black" cx="224.62" cy="-1773.92" rx="25.52" ry="25.52"/>
<text xml:space="preserve" text-anchor="middle" x="224.62" y="-1769.72" font-family="Times,serif" font-size="14.00">p14</text>
</g>
<!-- t15 -->
<g id="node41" class="node">
<title>t15</title>
<polygon fill="black" stroke="black" points="379.07,-1712.4 70.17,-1712.4 70.17,-1676.4 379.07,-1676.4 379.07,-1712.4"/>
<text xml:space="preserve" text-anchor="middle" x="224.62" y="-1690.2" font-family="Times,serif" font-size="14.00" fill="white">canvasGpu.height = ROWS * CELL_SIZE (line 19)</text>
</g>
<!-- p14&#45;&gt;t15 -->
<g id="edge29" class="edge">
<title>p14&#45;&gt;t15</title>
<path fill="none" stroke="black" d="M224.62,-1747.96C224.62,-1740.32 224.62,-1731.86 224.62,-1723.99"/>
<polygon fill="black" stroke="black" points="228.12,-1724.22 224.62,-1714.22 221.12,-1724.22 228.12,-1724.22"/>
</g>
<!-- p15 -->
<g id="node17" class="node">
<title>p15</title>
<ellipse fill="none" stroke="black" cx="224.62" cy="-1614.88" rx="25.52" ry="25.52"/>
<text xml:space="preserve" text-anchor="middle" x="224.62" y="-1610.68" font-family="Times,serif" font-size="14.00">p15</text>
</g>
<!-- t16 -->
<g id="node42" class="node">
<title>t16</title>
<polygon fill="black" stroke="black" points="345.83,-1553.35 103.41,-1553.35 103.41,-1517.35 345.83,-1517.35 345.83,-1553.35"/>
<text xml:space="preserve" text-anchor="middle" x="224.62" y="-1531.15" font-family="Times,serif" font-size="14.00" fill="white">const COLOR_BG = &#39;#1a2235&#39; (line 22)</text>
</g>
<!-- p15&#45;&gt;t16 -->
<g id="edge31" class="edge">
<title>p15&#45;&gt;t16</title>
<path fill="none" stroke="black" d="M224.62,-1588.92C224.62,-1581.28 224.62,-1572.81 224.62,-1564.95"/>
<polygon fill="black" stroke="black" points="228.12,-1565.17 224.62,-1555.17 221.12,-1565.17 228.12,-1565.17"/>
</g>
<!-- p16 -->
<g id="node18" class="node">
<title>p16</title>
<ellipse fill="none" stroke="black" cx="224.62" cy="-1455.83" rx="25.52" ry="25.52"/>
<text xml:space="preserve" text-anchor="middle" x="224.62" y="-1451.63" font-family="Times,serif" font-size="14.00">p16</text>
</g>
<!-- t17 -->
<g id="node43" class="node">
<title>t17</title>
<polygon fill="black" stroke="black" points="353.99,-1394.31 95.26,-1394.31 95.26,-1358.31 353.99,-1358.31 353.99,-1394.31"/>
<text xml:space="preserve" text-anchor="middle" x="224.62" y="-1372.11" font-family="Times,serif" font-size="14.00" fill="white">const COLOR_ALIVE = &#39;#00f0ff&#39; (line 23)</text>
</g>
<!-- p16&#45;&gt;t17 -->
<g id="edge33" class="edge">
<title>p16&#45;&gt;t17</title>
<path fill="none" stroke="black" d="M224.62,-1429.88C224.62,-1422.23 224.62,-1413.77 224.62,-1405.9"/>
<polygon fill="black" stroke="black" points="228.12,-1406.13 224.62,-1396.13 221.12,-1406.13 228.12,-1406.13"/>
</g>
<!-- p17 -->
<g id="node19" class="node">
<title>p17</title>
<ellipse fill="none" stroke="black" cx="224.62" cy="-1296.79" rx="25.52" ry="25.52"/>
<text xml:space="preserve" text-anchor="middle" x="224.62" y="-1292.59" font-family="Times,serif" font-size="14.00">p17</text>
</g>
<!-- t18 -->
<g id="node44" class="node">
<title>t18</title>
<polygon fill="black" stroke="black" points="449.25,-1235.27 0,-1235.27 0,-1199.27 449.25,-1199.27 449.25,-1235.27"/>
<text xml:space="preserve" text-anchor="middle" x="224.62" y="-1213.07" font-family="Times,serif" font-size="14.00" fill="white">const gpuEngine = new WebGLEngine(canvasGpu, COLS, ROWS) (line 26)</text>
</g>
<!-- p17&#45;&gt;t18 -->
<g id="edge35" class="edge">
<title>p17&#45;&gt;t18</title>
<path fill="none" stroke="black" d="M224.62,-1270.83C224.62,-1263.19 224.62,-1254.73 224.62,-1246.86"/>
<polygon fill="black" stroke="black" points="228.12,-1247.08 224.62,-1237.08 221.12,-1247.08 228.12,-1247.08"/>
</g>
<!-- p18 -->
<g id="node20" class="node">
<title>p18</title>
<ellipse fill="none" stroke="black" cx="224.62" cy="-1137.74" rx="25.52" ry="25.52"/>
<text xml:space="preserve" text-anchor="middle" x="224.62" y="-1133.54" font-family="Times,serif" font-size="14.00">p18</text>
</g>
<!-- t19 -->
<g id="node45" class="node">
<title>t19</title>
<polygon fill="black" stroke="black" points="333.75,-1076.22 115.5,-1076.22 115.5,-1040.22 333.75,-1040.22 333.75,-1076.22"/>
<text xml:space="preserve" text-anchor="middle" x="224.62" y="-1054.02" font-family="Times,serif" font-size="14.00" fill="white">let grid = call: createGrid() (line 29)</text>
</g>
<!-- p18&#45;&gt;t19 -->
<g id="edge37" class="edge">
<title>p18&#45;&gt;t19</title>
<path fill="none" stroke="black" d="M224.62,-1111.79C224.62,-1104.15 224.62,-1095.68 224.62,-1087.82"/>
<polygon fill="black" stroke="black" points="228.12,-1088.04 224.62,-1078.04 221.12,-1088.04 228.12,-1088.04"/>
</g>
<!-- p19 -->
<g id="node21" class="node">
<title>p19</title>
<ellipse fill="none" stroke="black" cx="224.62" cy="-978.7" rx="25.52" ry="25.52"/>
<text xml:space="preserve" text-anchor="middle" x="224.62" y="-974.5" font-family="Times,serif" font-size="14.00">p19</text>
</g>
<!-- t20 -->
<g id="node46" class="node">
<title>t20</title>
<polygon fill="black" stroke="black" points="316.47,-917.18 132.77,-917.18 132.77,-881.18 316.47,-881.18 316.47,-917.18"/>
<text xml:space="preserve" text-anchor="middle" x="224.62" y="-894.98" font-family="Times,serif" font-size="14.00" fill="white">let isRunning = false (line 30)</text>
</g>
<!-- p19&#45;&gt;t20 -->
<g id="edge39" class="edge">
<title>p19&#45;&gt;t20</title>
<path fill="none" stroke="black" d="M224.62,-952.75C224.62,-945.1 224.62,-936.64 224.62,-928.77"/>
<polygon fill="black" stroke="black" points="228.12,-929 224.62,-919 221.12,-929 228.12,-929"/>
</g>
<!-- p20 -->
<g id="node22" class="node">
<title>p20</title>
<ellipse fill="none" stroke="black" cx="224.62" cy="-819.66" rx="25.52" ry="25.52"/>
<text xml:space="preserve" text-anchor="middle" x="224.62" y="-815.46" font-family="Times,serif" font-size="14.00">p20</text>
</g>
<!-- t21 -->
<g id="node47" class="node">
<title>t21</title>
<polygon fill="black" stroke="black" points="303.05,-758.13 146.2,-758.13 146.2,-722.13 303.05,-722.13 303.05,-758.13"/>
<text xml:space="preserve" text-anchor="middle" x="224.62" y="-735.93" font-family="Times,serif" font-size="14.00" fill="white">let mode = &#39;gpu&#39; (line 31)</text>
</g>
<!-- p20&#45;&gt;t21 -->
<g id="edge41" class="edge">
<title>p20&#45;&gt;t21</title>
<path fill="none" stroke="black" d="M224.62,-793.7C224.62,-786.06 224.62,-777.59 224.62,-769.73"/>
<polygon fill="black" stroke="black" points="228.12,-769.95 224.62,-759.95 221.12,-769.95 228.12,-769.95"/>
</g>
<!-- p21 -->
<g id="node23" class="node">
<title>p21</title>
<ellipse fill="none" stroke="black" cx="224.62" cy="-660.61" rx="25.52" ry="25.52"/>
<text xml:space="preserve" text-anchor="middle" x="224.62" y="-656.41" font-family="Times,serif" font-size="14.00">p21</text>
</g>
<!-- t22 -->
<g id="node48" class="node">
<title>t22</title>
<polygon fill="black" stroke="black" points="300.92,-599.09 148.33,-599.09 148.33,-563.09 300.92,-563.09 300.92,-599.09"/>
<text xml:space="preserve" text-anchor="middle" x="224.62" y="-576.89" font-family="Times,serif" font-size="14.00" fill="white">let speed = 100 (line 32)</text>
</g>
<!-- p21&#45;&gt;t22 -->
<g id="edge43" class="edge">
<title>p21&#45;&gt;t22</title>
<path fill="none" stroke="black" d="M224.62,-634.66C224.62,-627.02 224.62,-618.55 224.62,-610.69"/>
<polygon fill="black" stroke="black" points="228.12,-610.91 224.62,-600.91 221.12,-610.91 228.12,-610.91"/>
</g>
<!-- p22 -->
<g id="node24" class="node">
<title>p22</title>
<ellipse fill="none" stroke="black" cx="224.62" cy="-501.57" rx="25.52" ry="25.52"/>
<text xml:space="preserve" text-anchor="middle" x="224.62" y="-497.37" font-family="Times,serif" font-size="14.00">p22</text>
</g>
<!-- t23 -->
<g id="node49" class="node">
<title>t23</title>
<polygon fill="black" stroke="black" points="319.19,-440.05 130.06,-440.05 130.06,-404.05 319.19,-404.05 319.19,-440.05"/>
<text xml:space="preserve" text-anchor="middle" x="224.62" y="-417.85" font-family="Times,serif" font-size="14.00" fill="white">let animationId = null (line 33)</text>
</g>
<!-- p22&#45;&gt;t23 -->
<g id="edge45" class="edge">
<title>p22&#45;&gt;t23</title>
<path fill="none" stroke="black" d="M224.62,-475.61C224.62,-467.97 224.62,-459.51 224.62,-451.64"/>
<polygon fill="black" stroke="black" points="228.12,-451.86 224.62,-441.86 221.12,-451.86 228.12,-451.86"/>
</g>
<!-- p23 -->
<g id="node25" class="node">
<title>p23</title>
<ellipse fill="none" stroke="black" cx="224.62" cy="-342.53" rx="25.52" ry="25.52"/>
<text xml:space="preserve" text-anchor="middle" x="224.62" y="-338.33" font-family="Times,serif" font-size="14.00">p23</text>
</g>
<!-- t24 -->
<g id="node50" class="node">
<title>t24</title>
<polygon fill="black" stroke="black" points="320.35,-281 128.9,-281 128.9,-245 320.35,-245 320.35,-281"/>
<text xml:space="preserve" text-anchor="middle" x="224.62" y="-258.8" font-family="Times,serif" font-size="14.00" fill="white">let lastFrameTime = 0 (line 34)</text>
</g>
<!-- p23&#45;&gt;t24 -->
<g id="edge47" class="edge">
<title>p23&#45;&gt;t24</title>
<path fill="none" stroke="black" d="M224.62,-316.57C224.62,-308.93 224.62,-300.46 224.62,-292.6"/>
<polygon fill="black" stroke="black" points="228.12,-292.82 224.62,-282.82 221.12,-292.82 228.12,-292.82"/>
</g>
<!-- p24 -->
<g id="node26" class="node">
<title>p24</title>
<ellipse fill="none" stroke="black" cx="224.62" cy="-183.48" rx="25.52" ry="25.52"/>
<text xml:space="preserve" text-anchor="middle" x="224.62" y="-179.28" font-family="Times,serif" font-size="14.00">p24</text>
</g>
<!-- t25 -->
<g id="node51" class="node">
<title>t25</title>
<polygon fill="black" stroke="black" points="286.08,-121.96 163.17,-121.96 163.17,-85.96 286.08,-85.96 286.08,-121.96"/>
<text xml:space="preserve" text-anchor="middle" x="224.62" y="-99.76" font-family="Times,serif" font-size="14.00" fill="white">call: init() (line 37)</text>
</g>
<!-- p24&#45;&gt;t25 -->
<g id="edge49" class="edge">
<title>p24&#45;&gt;t25</title>
<path fill="none" stroke="black" d="M224.62,-157.53C224.62,-149.88 224.62,-141.42 224.62,-133.55"/>
<polygon fill="black" stroke="black" points="228.12,-133.78 224.62,-123.78 221.12,-133.78 228.12,-133.78"/>
</g>
<!-- t1&#45;&gt;p1 -->
<g id="edge2" class="edge">
<title>t1&#45;&gt;p1</title>
<path fill="none" stroke="black" d="M224.62,-3815.87C224.62,-3808.62 224.62,-3799.96 224.62,-3791.65"/>
<polygon fill="black" stroke="black" points="228.12,-3791.85 224.62,-3781.85 221.12,-3791.85 228.12,-3791.85"/>
</g>
<!-- t2&#45;&gt;p2 -->
<g id="edge4" class="edge">
<title>t2&#45;&gt;p2</title>
<path fill="none" stroke="black" d="M224.62,-3666.48C224.62,-3659.24 224.62,-3650.57 224.62,-3642.27"/>
<polygon fill="black" stroke="black" points="228.12,-3642.47 224.62,-3632.47 221.12,-3642.47 228.12,-3642.47"/>
</g>
<!-- t3&#45;&gt;p3 -->
<g id="edge6" class="edge">
<title>t3&#45;&gt;p3</title>
<path fill="none" stroke="black" d="M224.62,-3517.1C224.62,-3509.85 224.62,-3501.18 224.62,-3492.88"/>
<polygon fill="black" stroke="black" points="228.12,-3493.08 224.62,-3483.08 221.12,-3493.08 228.12,-3493.08"/>
</g>
<!-- t4&#45;&gt;p4 -->
<g id="edge8" class="edge">
<title>t4&#45;&gt;p4</title>
<path fill="none" stroke="black" d="M224.62,-3367.71C224.62,-3360.46 224.62,-3351.8 224.62,-3343.49"/>
<polygon fill="black" stroke="black" points="228.12,-3343.69 224.62,-3333.69 221.12,-3343.69 228.12,-3343.69"/>
</g>
<!-- t5&#45;&gt;p5 -->
<g id="edge10" class="edge">
<title>t5&#45;&gt;p5</title>
<path fill="none" stroke="black" d="M224.62,-3218.32C224.62,-3211.08 224.62,-3202.41 224.62,-3194.11"/>
<polygon fill="black" stroke="black" points="228.12,-3194.31 224.62,-3184.31 221.12,-3194.31 228.12,-3194.31"/>
</g>
<!-- t6&#45;&gt;p6 -->
<g id="edge12" class="edge">
<title>t6&#45;&gt;p6</title>
<path fill="none" stroke="black" d="M224.62,-3068.94C224.62,-3061.69 224.62,-3053.02 224.62,-3044.72"/>
<polygon fill="black" stroke="black" points="228.12,-3044.92 224.62,-3034.92 221.12,-3044.92 228.12,-3044.92"/>
</g>
<!-- t7&#45;&gt;p7 -->
<g id="edge14" class="edge">
<title>t7&#45;&gt;p7</title>
<path fill="none" stroke="black" d="M224.62,-2919.55C224.62,-2912.3 224.62,-2903.64 224.62,-2895.33"/>
<polygon fill="black" stroke="black" points="228.12,-2895.53 224.62,-2885.53 221.12,-2895.53 228.12,-2895.53"/>
</g>
<!-- t8&#45;&gt;p8 -->
<g id="edge16" class="edge">
<title>t8&#45;&gt;p8</title>
<path fill="none" stroke="black" d="M224.62,-2770.16C224.62,-2762.92 224.62,-2754.25 224.62,-2745.94"/>
<polygon fill="black" stroke="black" points="228.12,-2746.15 224.62,-2736.15 221.12,-2746.15 228.12,-2746.15"/>
</g>
<!-- t9&#45;&gt;p9 -->
<g id="edge18" class="edge">
<title>t9&#45;&gt;p9</title>
<path fill="none" stroke="black" d="M224.62,-2620.78C224.62,-2613.53 224.62,-2604.86 224.62,-2596.56"/>
<polygon fill="black" stroke="black" points="228.12,-2596.76 224.62,-2586.76 221.12,-2596.76 228.12,-2596.76"/>
</g>
<!-- t10&#45;&gt;p10 -->
<g id="edge20" class="edge">
<title>t10&#45;&gt;p10</title>
<path fill="none" stroke="black" d="M224.62,-2471.41C224.62,-2464.24 224.62,-2455.61 224.62,-2447.16"/>
<polygon fill="black" stroke="black" points="228.12,-2447.41 224.62,-2437.41 221.12,-2447.41 228.12,-2447.41"/>
</g>
<!-- t11&#45;&gt;p11 -->
<g id="edge22" class="edge">
<title>t11&#45;&gt;p11</title>
<path fill="none" stroke="black" d="M224.62,-2312.37C224.62,-2305.19 224.62,-2296.57 224.62,-2288.12"/>
<polygon fill="black" stroke="black" points="228.12,-2288.37 224.62,-2278.37 221.12,-2288.37 228.12,-2288.37"/>
</g>
<!-- t12&#45;&gt;p12 -->
<g id="edge24" class="edge">
<title>t12&#45;&gt;p12</title>
<path fill="none" stroke="black" d="M224.62,-2153.32C224.62,-2146.15 224.62,-2137.53 224.62,-2129.08"/>
<polygon fill="black" stroke="black" points="228.12,-2129.33 224.62,-2119.33 221.12,-2129.33 228.12,-2129.33"/>
</g>
<!-- t13&#45;&gt;p13 -->
<g id="edge26" class="edge">
<title>t13&#45;&gt;p13</title>
<path fill="none" stroke="black" d="M224.62,-1994.28C224.62,-1987.1 224.62,-1978.48 224.62,-1970.03"/>
<polygon fill="black" stroke="black" points="228.12,-1970.28 224.62,-1960.28 221.12,-1970.28 228.12,-1970.28"/>
</g>
<!-- t14&#45;&gt;p14 -->
<g id="edge28" class="edge">
<title>t14&#45;&gt;p14</title>
<path fill="none" stroke="black" d="M224.62,-1835.24C224.62,-1828.06 224.62,-1819.44 224.62,-1810.99"/>
<polygon fill="black" stroke="black" points="228.12,-1811.24 224.62,-1801.24 221.12,-1811.24 228.12,-1811.24"/>
</g>
<!-- t15&#45;&gt;p15 -->
<g id="edge30" class="edge">
<title>t15&#45;&gt;p15</title>
<path fill="none" stroke="black" d="M224.62,-1676.19C224.62,-1669.02 224.62,-1660.4 224.62,-1651.95"/>
<polygon fill="black" stroke="black" points="228.12,-1652.19 224.62,-1642.19 221.12,-1652.19 228.12,-1652.19"/>
</g>
<!-- t16&#45;&gt;p16 -->
<g id="edge32" class="edge">
<title>t16&#45;&gt;p16</title>
<path fill="none" stroke="black" d="M224.62,-1517.15C224.62,-1509.97 224.62,-1501.35 224.62,-1492.9"/>
<polygon fill="black" stroke="black" points="228.12,-1493.15 224.62,-1483.15 221.12,-1493.15 228.12,-1493.15"/>
</g>
<!-- t17&#45;&gt;p17 -->
<g id="edge34" class="edge">
<title>t17&#45;&gt;p17</title>
<path fill="none" stroke="black" d="M224.62,-1358.11C224.62,-1350.93 224.62,-1342.31 224.62,-1333.86"/>
<polygon fill="black" stroke="black" points="228.12,-1334.11 224.62,-1324.11 221.12,-1334.11 228.12,-1334.11"/>
</g>
<!-- t18&#45;&gt;p18 -->
<g id="edge36" class="edge">
<title>t18&#45;&gt;p18</title>
<path fill="none" stroke="black" d="M224.62,-1199.06C224.62,-1191.89 224.62,-1183.26 224.62,-1174.81"/>
<polygon fill="black" stroke="black" points="228.12,-1175.06 224.62,-1165.06 221.12,-1175.06 228.12,-1175.06"/>
</g>
<!-- t19&#45;&gt;p19 -->
<g id="edge38" class="edge">
<title>t19&#45;&gt;p19</title>
<path fill="none" stroke="black" d="M224.62,-1040.02C224.62,-1032.84 224.62,-1024.22 224.62,-1015.77"/>
<polygon fill="black" stroke="black" points="228.12,-1016.02 224.62,-1006.02 221.12,-1016.02 228.12,-1016.02"/>
</g>
<!-- t20&#45;&gt;p20 -->
<g id="edge40" class="edge">
<title>t20&#45;&gt;p20</title>
<path fill="none" stroke="black" d="M224.62,-880.97C224.62,-873.8 224.62,-865.18 224.62,-856.73"/>
<polygon fill="black" stroke="black" points="228.12,-856.98 224.62,-846.98 221.12,-856.98 228.12,-856.98"/>
</g>
<!-- t21&#45;&gt;p21 -->
<g id="edge42" class="edge">
<title>t21&#45;&gt;p21</title>
<path fill="none" stroke="black" d="M224.62,-721.93C224.62,-714.75 224.62,-706.13 224.62,-697.68"/>
<polygon fill="black" stroke="black" points="228.12,-697.93 224.62,-687.93 221.12,-697.93 228.12,-697.93"/>
</g>
<!-- t22&#45;&gt;p22 -->
<g id="edge44" class="edge">
<title>t22&#45;&gt;p22</title>
<path fill="none" stroke="black" d="M224.62,-562.89C224.62,-555.71 224.62,-547.09 224.62,-538.64"/>
<polygon fill="black" stroke="black" points="228.12,-538.89 224.62,-528.89 221.12,-538.89 228.12,-538.89"/>
</g>
<!-- t23&#45;&gt;p23 -->
<g id="edge46" class="edge">
<title>t23&#45;&gt;p23</title>
<path fill="none" stroke="black" d="M224.62,-403.84C224.62,-396.67 224.62,-388.04 224.62,-379.59"/>
<polygon fill="black" stroke="black" points="228.12,-379.84 224.62,-369.84 221.12,-379.84 228.12,-379.84"/>
</g>
<!-- t24&#45;&gt;p24 -->
<g id="edge48" class="edge">
<title>t24&#45;&gt;p24</title>
<path fill="none" stroke="black" d="M224.62,-244.8C224.62,-237.62 224.62,-229 224.62,-220.55"/>
<polygon fill="black" stroke="black" points="228.12,-220.8 224.62,-210.8 221.12,-220.8 228.12,-220.8"/>
</g>
<!-- t25&#45;&gt;p_end -->
<g id="edge50" class="edge">
<title>t25&#45;&gt;p_end</title>
<path fill="none" stroke="black" d="M224.62,-85.49C224.62,-78.44 224.62,-70.02 224.62,-61.77"/>
<polygon fill="black" stroke="black" points="228.12,-61.89 224.62,-51.89 221.12,-61.89 228.12,-61.89"/>
</g>
</g>
</svg>
